<svg xmlns="http://www.w3.org/2000/svg" xmlns:xlink="http://www.w3.org/1999/xlink" id="visual" version="1.1" viewBox="0 389 900 212"><path d="M0 491L25 475C50 459 100 427 150 421.3C200 415.7 250 436.3 300 455.3C350 474.3 400 491.7 450 499.8C500 508 550 507 600 499C650 491 700 476 750 456.5C800 437 850 413 875 401L900 389L900 601L875 601C850 601 800 601 750 601C700 601 650 601 600 601C550 601 500 601 450 601C400 601 350 601 300 601C250 601 200 601 150 601C100 601 50 601 25 601L0 601Z" fill="#333333" stroke-linecap="round" stroke-linejoin="miter"/></svg>